# xmcd
# Copyright (C) 1995-1998 Ti Kan
#
# Track frame offsets:
#       150
#       20346
#       35373
#       54429
#       75800
#       91781
#       117058
#       139639
#       154570
#       173378
#       182543
#       214878
#
# Disc length: 4472 seconds
#
# Revision: 0
# Processed by: cddbd v1.5.2PL0 Copyright (c) Steve Scherf et al.
# Submitted via: CD-Import v1.0
#
DISCID=7c11760c
DTITLE=X Makeena - Instinctive Dérive
DYEAR=07
DGENRE=
TTITLE0=Marche Mouteuse
TTITLE1=Noise Conspiracy Feat. Bluebird and Powskii
TTITLE2=Al Comor
TTITLE3=Frenetik
TTITLE4=The Chase
TTITLE5=Humain
TTITLE6=Karma
TTITLE7=Hollow Eyes
TTITLE8=En Orbite Feat. Robert Le Magnifique
TTITLE9=Karma [Mtx Remix]
TTITLE10=Watch Me Explode
TTITLE11=Data Track
EXTD=
EXTT0=
EXTT1=
EXTT2=
EXTT3=
EXTT4=
EXTT5=
EXTT6=
EXTT7=
EXTT8=
EXTT9=
EXTT10=
EXTT11=
PLAYORDER=
